<?xml version="1.0" encoding="UTF-8" standalone="no"?>
<svg viewBox="0 0 512 512" version="1.1" xmlns="http://www.w3.org/2000/svg" xmlns:xlink="http://www.w3.org/1999/xlink">
    <g id="Interval" stroke="none" stroke-width="1" fill="none" fill-rule="evenodd">
        <g id="Icon" fill-rule="nonzero">
            <path d="M458.666656,8.80000002e-06 L53.3333397,8.80000002e-06 C23.8782635,8.80000002e-06 7.6e-06,23.8782627 7.6e-06,53.3333409 L7.6e-06,458.666654 C8.8e-06,488.121735 23.8782635,512 53.3333397,512 L458.666653,512 C488.12207,512 512,488.121735 512,458.666657 L512,53.3333397 C512,23.8782635 488.12207,8.80000002e-06 458.666656,8.80000002e-06 Z" id="Shape" fill="#60A4B2"></path>
            <path d="M512,297.863922 L378.789398,164.653 L370.149414,156.012375 L354.976227,171.185547 L293.136078,109.345711 L218.842773,109.345711 L218.842773,121.55925 L249.882813,152.599609 L249.882813,154.999359 L252.282883,154.999359 L252.373703,155.0905 C185.66536,156.994141 132.176117,211.617844 132.176117,278.839203 C132.176117,311.688141 144.990234,341.535156 165.869476,363.70639 L165.869476,363.746735 L166.684906,364.561859 C167.863281,365.789703 169.066086,366.992188 170.293945,368.171234 L314.122406,512 L458.666657,512 C488.121857,512 512,488.121857 512,458.666656 L512,297.863922 Z" id="Shape" fill-opacity="0.3" fill="#000000"></path>
            <g id="Group" transform="translate(132.000000, 109.000000)" fill="#FFFFFF">
                <path d="M123.998703,156.073578 C116.418945,156.073578 110.248703,162.241547 110.248703,169.823578 C110.248703,177.405609 116.418945,183.573578 123.998703,183.573578 C131.577484,183.573578 137.748383,177.405609 137.748383,169.823578 C137.748383,162.241547 131.577484,156.073578 123.998703,156.073578 Z" id="Shape"></path>
                <path d="M215.770508,86.6985626 L246.792969,55.6764374 L238.151367,47.0345154 L207.129547,78.0572968 C186.567718,59.4173279 159.690094,47.7181092 130.109711,46.2701874 L130.109711,12.5553436 L161.160156,12.5553436 L161.160156,0.3333358 L86.842453,0.3333358 L86.842453,12.5553436 L117.887375,12.5553436 L117.887375,46.1360779 C52.3303986,49.3242188 0.1569061,103.477219 0.1569061,169.823578 C0.1569061,238.220703 55.6031952,293.666656 124,293.666656 C192.396805,293.666656 247.843414,238.220703 247.843414,169.823578 C247.843414,137.824875 235.692383,108.675125 215.770508,86.6985626 Z M123.998703,195.794922 C109.675461,195.794922 98.0263672,184.143219 98.0263672,169.823578 C98.0263672,164.879547 99.4895783,160.30014 101.897781,156.361328 L56.9134064,111.376953 L65.5553437,102.735672 L110.540039,147.720703 C114.477539,145.314453 119.054688,143.850906 123.998703,143.850906 C138.321289,143.850906 149.970703,155.503265 149.970703,169.823578 C149.970703,184.143219 138.321289,195.794922 123.998703,195.794922 Z" id="Shape"></path>
            </g>
        </g>
    </g>
</svg>